# xmcd
#
# Track frame offsets:
#   150
#   9795
#   28939
#   43202
#   64031
#   79029
#   99586
#   114863
#   129710
#   149246
#   167048
#   183029
#   199865
#   219063
#   235778
#   256804
#   272684
#   291313
#   305288
#
# Disc length: 4262 seconds
#
# Revision: 0
# Processed by: cddbd v1.5.1PL0 Copyright (c) Steve Scherf et al.
# Submitted via: Media_Universe 3.0
#
DISCID=0810a413
DTITLE=Vince Gill - Vince Gill
DYEAR=1900
DGENRE=Country
TTITLE0=Ill Take Texas
TTITLE1=When I Call Your Name
TTITLE2=Let It Be Me
TTITLE3=If You Ever Leave Me
TTITLE4=Saturday Night Special
TTITLE5=Its Hard To Kiss The Lips At Night (that chew your ass out all day)
TTITLE6=Stepping Stone
TTITLE7=Its Not Over
TTITLE8=Whenever You Come Around
TTITLE9=My Kind Of Woman (my kind of man)
TTITLE10=Cinderella
TTITLE11=Love Start Slippin Away
TTITLE12=Feels Like Love
TTITLE13=From Where I Stand
TTITLE14=If You Ever Have Forever In Mind
TTITLE15=Loving You Makes Me A Better Man
TTITLE16=Make Sure We Kiss Goodbye
TTITLE17=What The Cowgirls Do
TTITLE18=Kindly Keep It Country
EXTD=
EXTT0=
EXTT1=
EXTT2=
EXTT3=
EXTT4=
EXTT5=
EXTT6=
EXTT7=
EXTT8=
EXTT9=
EXTT10=
EXTT11=
EXTT12=
EXTT13=
EXTT14=
EXTT15=
EXTT16=
EXTT17=
EXTT18=
PLAYORDER=
